<svg xmlns="http://www.w3.org/2000/svg" viewBox="0 0 360 120" role="img" aria-label="EasyPaisa">
  <rect width="360" height="120" rx="12" fill="#00A651"/>
  <path fill="#ffffff" d="M44 78V42h12.4l20.8 24.4V42H88v36H75.6L54.8 53.6V78H44zm52.2 2.2c-11.8 0-20.8-8.8-20.8-20.2S84.4 39.8 96.2 39.8c11.8 0 20.8 8.8 20.8 20.2S108 80.2 96.2 80.2zm0-9.2c6 0 10.2-4.6 10.2-11 0-6.4-4.2-11-10.2-11s-10.2 4.6-10.2 11c0 6.4 4.2 11 10.2 11zm38.4 9.2c-11.8 0-20.8-8.8-20.8-20.2s9-20.2 20.8-20.2 20.8 8.8 20.8 20.2-9 20.2-20.8 20.2zm0-9.2c6 0 10.2-4.6 10.2-11 0-6.4-4.2-11-10.2-11s-10.2 4.6-10.2 11c0 6.4 4.2 11 10.2 11zm44.2 9.2V42h18.4c10.2 0 17.4 5.8 17.4 14.6 0 6.2-3.6 10.8-9.4 12.6l12.8 8.8h-12.4l-11.2-8h-5.2v8h-10.8zm10.8-16.2h6.8c4.2 0 6.6-2.2 6.6-5.8 0-3.6-2.4-5.8-6.6-5.8h-6.8v11.6zM278 78V42h18.2c12.4 0 20.8 7.8 20.8 18.2 0 7.2-3.8 12.8-10 15.4L320 78h-12.4l-11.4-17.2H290V78H278z"/>
</svg>
