<svg xmlns="http://www.w3.org/2000/svg" viewBox="0 0 320 120" role="img" aria-label="JazzCash">
  <rect width="320" height="120" rx="12" fill="#D20A11"/>
  <path fill="#ffffff" d="M48 78V42h18.4c10.2 0 17.4 5.8 17.4 14.6 0 6.2-3.6 10.8-9.4 12.6l12.8 8.8H72.8l-11.2-8H58.8v8H48zm10.8-16.2h6.8c4.2 0 6.6-2.2 6.6-5.8 0-3.6-2.4-5.8-6.6-5.8h-6.8v11.6zM98.2 78l9.8-36h11.2l9.8 36h-10.6l-1.6-6.4h-11.4l-1.6 6.4H98.2zm16.8-14.8-3.8-15-3.8 15h7.6zM141.2 78V42h18.2c12.4 0 20.8 7.8 20.8 18.2 0 7.2-3.8 12.8-10 15.4L183 78h-12.4l-11.4-17.2h-7.4V78h-10.8zm10.8-26.2h6.4c5.2 0 8.2-2.6 8.2-6.8 0-4.2-3-6.8-8.2-6.8h-6.4v13.6zM194.8 78V42h10.8v36H194.8zm28.2 0V42h18.4c10.2 0 17.4 5.8 17.4 14.6 0 6.2-3.6 10.8-9.4 12.6l12.8 8.8h-12.4l-11.2-8h-5.2v8h-10.8zm10.8-16.2h6.8c4.2 0 6.6-2.2 6.6-5.8 0-3.6-2.4-5.8-6.6-5.8h-6.8v11.6z"/>
</svg>
