<svg xmlns="http://www.w3.org/2000/svg" viewBox="0 0 320 120" role="img" aria-label="PayPak">
  <rect width="320" height="120" rx="12" fill="#17653A"/>
  <path fill="#ffffff" d="M48 78V42h18.4c10.2 0 17.4 5.8 17.4 14.6 0 6.2-3.6 10.8-9.4 12.6l12.8 8.8H72.8l-11.2-8H58.8v8H48zm10.8-16.2h6.8c4.2 0 6.6-2.2 6.6-5.8 0-3.6-2.4-5.8-6.6-5.8h-6.8v11.6zM98.2 78l9.8-36h11.2l9.8 36h-10.6l-1.6-6.4h-11.4l-1.6 6.4H98.2zm16.8-14.8-3.8-15-3.8 15h7.6zM141.2 78V42h10.8l14.2 20.2V42H177v36h-10.8l-14.2-20.2V78h-10.8zm44.2 2.2c-11.8 0-20.8-8.8-20.8-20.2s9-20.2 20.8-20.2c7.2 0 13.2 3.4 16.6 8.8l-8.8 5.2c-1.8-2.6-4.6-4.2-7.8-4.2-4.6 0-8 3.6-8 10.2s3.4 10.2 8 10.2c3.2 0 6-1.6 7.8-4.2l8.8 5.2c-3.4 5.4-9.4 8.8-16.6 8.8zM214 78V42h18.2c12.4 0 20.8 7.8 20.8 18.2 0 7.2-3.8 12.8-10 15.4L256 78h-12.4l-11.4-17.2H224V78H214z"/>
</svg>
