<svg xmlns="http://www.w3.org/2000/svg" viewBox="0 0 780 500" role="img" aria-label="Visa">
  <rect width="780" height="500" rx="40" fill="#ffffff"/>
  <path fill="#1434CB" d="M489.823 346.329h-63.612l39.647-244.218h63.612l-39.647 244.218zm-252.411-236.82c-12.275-4.496-31.586-9.343-55.677-9.343-61.447 0-104.722 32.471-104.966 79.018-.244 34.375 30.676 53.533 54.089 64.855 24.032 11.567 32.107 18.972 32.107 29.283-.244 15.828-19.222 23.111-36.947 23.111-24.643 0-37.802-3.418-59.589-11.567l-8.199-3.662-8.931 54.822c14.861 6.711 42.416 12.519 70.947 12.763 65.319 0 107.874-32.227 108.362-82.192.366-27.572-17.269-48.625-54.333-65.807-22.568-11.078-36.459-18.484-36.459-29.771.122-9.953 11.811-20.506 37.314-20.506 21.055-.122 36.337 4.252 48.246 9.099l5.737 2.686 8.565-52.497zm377.834-7.507h-49.222c-15.341 0-26.764 4.252-33.475 19.588l-115.751 224.739h63.612s11.079-29.039 13.545-35.384h82.192c1.953 8.199 7.873 35.384 7.873 35.384h56.177L615.246 102.002zm-95.593 157.009 33.841-92.683-19.222 92.683h-14.619zM283.751 102.002l-59.589 244.327h60.569l59.467-244.327h-60.447z"/>
</svg>
